Coordinates
version=1
nRows=10
nColumns=40
inDegrees=yes

Units are S.I. units (second, meters, Newtons, ...)
If the header above contains a line with 'inDegrees', this indicates whether rotational values are in degrees (yes) or radians (no).

endheader
time	pelvis_tilt	pelvis_list	pelvis_rotation	pelvis_tx	pelvis_ty	pelvis_tz	hip_flexion_r	hip_adduction_r	hip_rotation_r	knee_angle_r	knee_angle_r_beta	ankle_angle_r	subtalar_angle_r	mtp_angle_r	hip_flexion_l	hip_adduction_l	hip_rotation_l	knee_angle_l	knee_angle_l_beta	ankle_angle_l	subtalar_angle_l	mtp_angle_l	lumbar_extension	lumbar_bending	lumbar_rotation	arm_flex_r	arm_add_r	arm_rot_r	elbow_flex_r	pro_sup_r	wrist_flex_r	wrist_dev_r	arm_flex_l	arm_add_l	arm_rot_l	elbow_flex_l	pro_sup_l	wrist_flex_l	wrist_dev_l
      7.05500000	     -2.54358711	      0.18603737	      2.85289552	     -0.28499354	      1.19586253	     -0.90068638	      1.19662548	     -7.49863865	    -24.71549702	      0.53989114	      0.00942288	    -38.63717669	      0.00000000	      0.00000000	      2.02552689	     -8.36692601	    -17.88770989	      1.08376929	      0.01891534	    -36.71604156	      0.00000000	      0.00000000	     -5.60613894	      2.65318053	      4.52086521	     20.46079547	    -40.22620467	     88.41780718	     73.55088215	     87.80664851	      0.00000000	      0.00000000	     27.69192697	    -39.29496339	     89.38089952	     82.66020494	     87.97909024	      0.00000000	      0.00000000
      7.06000000	     -2.58528405	      0.04689664	      2.57273626	     -0.28398369	      1.20591946	     -0.90053583	      1.29257154	     -7.18779796	    -24.35935276	      0.75716329	      0.01321499	    -38.86291133	      0.00000000	      0.00000000	      1.96672262	     -8.44496999	    -17.61060690	      1.33926018	      0.02337450	    -37.15060588	      0.00000000	      0.00000000	     -5.36361962	      2.78897134	      4.92305580	     20.38884337	    -40.38946339	     88.37096002	     73.63054360	     87.76679869	      0.00000000	      0.00000000	     27.82998520	    -39.24780448	     89.35784418	     82.59871762	     87.93908222	      0.00000000	      0.00000000
      7.06500000	     -2.69218782	     -0.17703542	      2.39993242	     -0.28321840	      1.21558497	     -0.90056427	      1.51834165	     -6.84219913	    -24.06926546	      1.22410519	      0.02136467	    -39.09909867	      0.00000000	      0.00000000	      2.10108281	     -8.57000198	    -17.38970998	      1.62709169	      0.02839811	    -37.37172057	      0.00000000	      0.00000000	     -5.09367237	      3.02775636	      5.25928449	     20.21132087	    -40.64501447	     88.29264484	     73.85527159	     87.81630002	      0.00000000	      0.00000000	     27.94372681	    -39.12035230	     89.35080743	     82.47625217	     87.98717681	      0.00000000	      0.00000000
      7.07000000	     -2.58993090	     -0.26465511	      2.14642169	     -0.28268368	      1.22515305	     -0.90063266	      1.66439314	     -6.71895302	    -23.97704522	      2.03232744	      0.03547081	    -39.26147663	      0.00000000	      0.00000000	      2.03567666	     -8.55309304	    -17.03634724	      2.13015684	      0.03717825	    -37.61587004	      0.00000000	      0.00000000	     -5.11663759	      3.12268839	      5.62461100	     20.15661338	    -40.78243406	     88.25152076	     73.89755848	     87.82582164	      0.00000000	      0.00000000	     28.08078267	    -39.04558672	     89.33207952	     82.45739486	     87.99523146	      0.00000000	      0.00000000
      7.07500000	     -2.62567499	     -0.30909778	      1.86791022	     -0.28252658	      1.23430450	     -0.90048500	      2.15066061	     -6.72639308	    -24.39084225	      3.23551318	      0.05647036	    -39.35195464	      0.00000000	      0.00000000	      2.19106784	     -8.50570516	    -16.53234851	      2.81321013	      0.04909978	    -37.72681919	      0.00000000	      0.00000000	     -5.05312310	      3.12660692	      6.02797873	     20.08713900	    -40.88485995	     88.14333116	     73.89124113	     87.82597798	      0.00000000	      0.00000000	     28.25646120	    -38.98696847	     89.33579742	     82.38856624	     88.00544574	      0.00000000	      0.00000000
      7.08000000	     -2.33411472	     -0.33427957	      1.48986809	     -0.28233369	      1.24367959	     -0.90019111	      2.17935584	     -6.69175537	    -24.27376819	      4.15035076	      0.07243729	    -39.42144821	      0.00000000	      0.00000000	      1.97865233	     -8.45156218	    -16.16431952	      3.52476815	      0.06151881	    -37.94381889	      0.00000000	      0.00000000	     -5.38774677	      3.10806555	      6.46376058	     20.15964100	    -40.92686271	     88.16055393	     73.68905219	     87.82636981	      0.00000000	      0.00000000	     28.42468728	    -38.96414067	     89.29448050	     82.35853783	     87.98789914	      0.00000000	      0.00000000
      7.08500000	     -2.26321952	     -0.29771559	      1.01519210	     -0.28229415	      1.25236290	     -0.89952116	      2.63638111	     -6.82577479	    -24.38563491	      5.44276449	      0.09499416	    -39.43093357	      0.00000000	      0.00000000	      2.01836852	     -8.36378281	    -15.92924684	      4.36387683	      0.07616402	    -38.03452493	      0.00000000	      0.00000000	     -5.49539250	      2.98575673	      7.04281788	     20.07881538	    -40.93022277	     88.12144656	     73.57106815	     87.82026049	      0.00000000	      0.00000000	     28.61509875	    -38.96966195	     89.32002880	     82.32761233	     87.97835538	      0.00000000	      0.00000000
      7.09000000	     -2.00161204	     -0.31002720	      0.60136435	     -0.28238769	      1.26092757	     -0.89880720	      2.56730826	     -6.72985027	    -24.28508489	      5.84872287	      0.10207947	    -39.46802341	      0.00000000	      0.00000000	      1.79949570	     -8.30149821	    -15.67226489	      4.94892063	      0.08637496	    -38.21538655	      0.00000000	      0.00000000	     -5.83768043	      2.90630343	      7.41499038	     20.22605586	    -40.87720244	     88.10425501	     73.42255746	     87.81643340	      0.00000000	      0.00000000	     28.64900853	    -39.07277689	     89.26492850	     82.31508773	     87.97479980	      0.00000000	      0.00000000
      7.09500000	     -1.56668894	     -0.23288569	      0.41522814	     -0.28225943	      1.26938797	     -0.89831953	      2.34580495	     -6.82894068	    -24.08739700	      6.46158249	      0.11277589	    -39.44577270	      0.00000000	      0.00000000	      1.54345151	     -8.19062058	    -15.46836661	      5.74341263	      0.10024146	    -38.19063906	      0.00000000	      0.00000000	     -6.35618164	      2.70251314	      7.70045429	     20.23360807	    -40.79795485	     88.16591889	     73.17413699	     87.81977794	      0.00000000	      0.00000000	     28.93316586	    -39.13340747	     89.28125321	     82.39365761	     87.96545803	      0.00000000	      0.00000000
      7.10000000	     -1.17834719	     -0.16390863	      0.13746831	     -0.28223485	      1.27739609	     -0.89753096	      2.11501279	     -6.85347718	    -23.78171707	      6.83820696	      0.11934923	    -39.41840654	      0.00000000	      0.00000000	      1.27057109	     -8.10078424	    -15.46226846	      6.41164513	      0.11190432	    -38.08727065	      0.00000000	      0.00000000	     -6.82128942	      2.48825869	      7.94094938	     20.33868299	    -40.65855136	     88.15188483	     72.90968091	     87.81853533	      0.00000000	      0.00000000	     29.08258969	    -39.30241866	     89.29809254	     82.48528406	     87.96798846	      0.00000000	      0.00000000
